<svg xmlns="http://www.w3.org/2000/svg" viewBox="0 0 48 48" role="img" aria-label="Relais Textile">
  <defs>
    <linearGradient id="rt-fil" x1="0%" y1="0%" x2="100%" y2="100%">
      <stop offset="0%" stop-color="#0f766e"/>
      <stop offset="100%" stop-color="#115e59"/>
    </linearGradient>
    <linearGradient id="rt-tissu" x1="0%" y1="0%" x2="0%" y2="100%">
      <stop offset="0%" stop-color="#ccfbf1"/>
      <stop offset="100%" stop-color="#99f6e4"/>
    </linearGradient>
  </defs>
  <rect width="48" height="48" rx="13" fill="#faf8f5"/>
  <path d="M8 32c0-8 6-14 16-14s16 6 16 14" fill="none" stroke="url(#rt-fil)" stroke-width="2.5" stroke-linecap="round" opacity="0.35"/>
  <path d="M14 18c4-6 10-8 16-6 5 2 8 7 8 13v2H14v-2c0-3 0-5 0-7z" fill="url(#rt-tissu)" stroke="#0d9488" stroke-width="1.2"/>
  <path d="M18 22h20" stroke="#0f766e" stroke-width="1.5" stroke-linecap="round" opacity="0.5"/>
  <path d="M20 26h14" stroke="#0f766e" stroke-width="1.2" stroke-linecap="round" opacity="0.35"/>
  <circle cx="11" cy="30" r="3.5" fill="#134e4a"/>
  <circle cx="37" cy="30" r="3.5" fill="#134e4a"/>
  <path d="M11 30c4-5 9-7 13-7s9 2 13 7" fill="none" stroke="url(#rt-fil)" stroke-width="2" stroke-linecap="round"/>
</svg>
